<?xml version="1.0" encoding="UTF-8" standalone="no"?>
<!-- Created with Inkscape (http://www.inkscape.org/) -->

<svg
   xmlns:i="http://ns.adobe.com/AdobeIllustrator/10.0/"
   xmlns:dc="http://purl.org/dc/elements/1.1/"
   xmlns:cc="http://creativecommons.org/ns#"
   xmlns:rdf="http://www.w3.org/1999/02/22-rdf-syntax-ns#"
   xmlns:svg="http://www.w3.org/2000/svg"
   xmlns="http://www.w3.org/2000/svg"
   xmlns:sodipodi="http://sodipodi.sourceforge.net/DTD/sodipodi-0.dtd"
   xmlns:inkscape="http://www.inkscape.org/namespaces/inkscape"
   width="640"
   height="480"
   id="svg2"
   version="1.1"
   inkscape:version="0.48.5 r10040"
   sodipodi:docname="splash.svg"
   inkscape:export-filename="/home/daniel/ws/make-pgp-clean-room/splash/splash.png"
   inkscape:export-xdpi="90"
   inkscape:export-ydpi="90">
  <defs
     id="defs4" />
  <sodipodi:namedview
     id="base"
     pagecolor="#000000"
     bordercolor="#666666"
     borderopacity="1.0"
     inkscape:pageopacity="1"
     inkscape:pageshadow="2"
     inkscape:zoom="0.98994949"
     inkscape:cx="375"
     inkscape:cy="238.396"
     inkscape:document-units="px"
     inkscape:current-layer="layer1"
     showgrid="false"
     inkscape:window-width="1102"
     inkscape:window-height="674"
     inkscape:window-x="86"
     inkscape:window-y="113"
     inkscape:window-maximized="0" />
  <metadata
     id="metadata7">
    <rdf:RDF>
      <cc:Work
         rdf:about="">
        <dc:format>image/svg+xml</dc:format>
        <dc:type
           rdf:resource="http://purl.org/dc/dcmitype/StillImage" />
        <dc:title></dc:title>
      </cc:Work>
    </rdf:RDF>
  </metadata>
  <g
     inkscape:label="Layer 1"
     inkscape:groupmode="layer"
     id="layer1"
     transform="translate(0,-572.3622)">
    <path
       inkscape:connector-curvature="0"
       d="m 622.48694,635.20325 0,5.41333 q -6.02191,-4.10004 -11.9157,-4.10004 -6.4063,0 -10.34617,4.35629 -2.46642,2.72267 -3.36331,5.98989 -1.1211,3.93987 -1.1211,8.71256 0,9.83367 4.42035,14.63839 3.71565,4.068 9.76959,4.068 3.52347,0 6.75865,-1.8258 l 0,-17.07278 q 0,-1.18517 -0.25625,-2.11408 l 7.62349,0 q -0.25625,0.99298 -0.25625,2.11408 l 0,16.81653 q 0.032,1.47345 0.41642,2.62658 -5.89381,1.9219 -8.61647,2.46643 -2.69066,0.54454 -6.47038,0.54454 -6.8227,0 -11.14694,-2.4344 -5.1891,-2.91487 -7.78366,-8.5524 -2.27424,-4.93286 -2.27424,-11.37118 0,-11.43525 7.11099,-17.61732 5.73365,-5.02895 15.21496,-5.02895 5.76566,0 12.23602,2.37033 z m -58.84184,23.1908 0,16.68841 q 0,0.92891 0.32031,2.11408 l -7.91177,0 q 0.28828,-0.99298 0.28828,-2.11408 l 0,-39.4628 q 0,-1.18516 -0.28828,-2.14611 l 13.99775,0 q 5.12505,0 8.68054,2.05002 5.44535,3.20315 5.44535,10.02585 0,7.55943 -6.63052,10.89071 -3.8758,1.95392 -9.2571,1.95392 l -4.64456,0 z m 0,-3.36331 3.90784,0 q 3.20314,0 5.15706,-1.15313 1.85784,-1.1211 2.94691,-3.33127 1.08906,-2.21018 1.08906,-4.90082 0,-4.16409 -2.30627,-6.53442 -2.27422,-2.40237 -6.27816,-2.40237 l -4.51644,0 0,18.32201 z m -23.22283,22.1658 0,-4.6766 q -1.8258,2.49845 -3.52345,3.58752 -2.69066,1.69767 -6.75865,1.69767 -5.47739,0 -8.42428,-3.10705 -2.43441,-2.56252 -2.43441,-7.39927 l 0,-22.1658 q 0,-1.08907 -0.25625,-2.08204 l 7.2071,0 q -0.25625,0.89688 -0.25625,2.08204 l 0,21.42907 q 0,2.75471 1.31328,4.38832 1.7297,2.08204 5.1891,2.08204 3.49143,0 5.63754,-1.98595 2.17815,-2.01798 2.17815,-5.22113 l 0,-20.69235 q 0,-1.1211 -0.25625,-2.08204 l 7.20707,0 q -0.25625,0.83282 -0.25625,2.08204 l 0,29.94945 q 0,1.025 0.25625,2.11408 l -6.8227,0 z m -58.04105,-34.14557 6.8227,0 0,4.77269 q 1.53751,-2.40236 3.10706,-3.52346 2.9469,-2.05002 7.46333,-2.05002 5.82974,0 8.84069,3.5555 1.92189,2.27423 1.92189,6.34223 l 0,22.93455 q 0,1.05704 0.25626,2.11408 l -7.20709,0 q 0.25625,-0.80079 0.25625,-2.11408 l 0,-21.94157 q 0,-2.91487 -1.69766,-4.51644 -1.69768,-1.60158 -4.83676,-1.60158 -3.90784,0 -5.89379,2.17815 -2.08205,2.30626 -2.08205,5.92582 l 0,19.95562 q 0,1.1211 0.25625,2.11408 l -7.20708,0 q 0.25625,-0.92892 0.25625,-2.11408 l 0,-29.94945 q 0,-1.08907 -0.25625,-2.08204 z m -9.41726,-7.84772 0,5.41333 q -6.02192,-4.10004 -11.91572,-4.10004 -6.40629,0 -10.34617,4.35629 -2.46642,2.72267 -3.3633,5.98989 -1.1211,3.93987 -1.1211,8.71256 0,9.83367 4.42034,14.63839 3.71565,4.068 9.7696,4.068 3.52347,0 6.75865,-1.8258 l 0,-17.07278 q 0,-1.18517 -0.25625,-2.11408 l 7.62349,0 q -0.25625,0.99298 -0.25625,2.11408 l 0,16.81653 q 0.032,1.47345 0.41641,2.62658 -5.8938,1.9219 -8.61647,2.46643 -2.69065,0.54454 -6.47036,0.54454 -6.82271,0 -11.14696,-2.4344 -5.1891,-2.91487 -7.78365,-8.5524 -2.27424,-4.93286 -2.27424,-11.37118 0,-11.43525 7.11099,-17.61732 5.73364,-5.02895 15.21496,-5.02895 5.76567,0 12.23603,2.37033 z m -108.23428,-2.47868 4.61497,0 0,-13.89173 c 0,-15.57307 12.62968,-28.20275 28.20259,-28.20275 15.5734,0 28.20226,12.62968 28.20226,28.20275 l 0,13.75453 c -0.0667,0.0466 -0.13298,0.0923 -0.19834,0.1372 l 4.6e-4,0 -0.0429,0.029 -0.005,0.003 -0.005,0.003 -0.005,0.003 -0.0213,0.0146 -0.0252,0.0171 -0.005,0.003 -0.0276,0.0187 -0.001,9.2e-4 -0.0114,0.007 -0.007,0.004 -0.013,0.009 -0.003,0.002 -0.0168,0.0112 -1.6e-4,0 -0.0168,0.0114 -0.0226,0.0151 -0.0114,0.007 -0.01,0.006 -0.008,0.005 -0.0254,0.0172 -0.0246,0.0161 -9.2e-4,9.1e-4 -0.0319,0.0212 -0.007,0.005 -0.0389,0.0255 -0.003,0.002 -0.0162,0.0105 -4.6e-4,3.3e-4 -0.007,0.004 -0.0509,0.0333 -0.008,0.005 -0.0114,0.007 -0.005,0.003 -0.003,0.002 -0.0262,0.0171 -0.003,10e-4 -4.5e-4,4.6e-4 -0.002,9.1e-4 -0.0299,0.0194 -0.007,0.004 -0.01,0.006 -0.01,0.006 -0.007,0.005 -0.0162,0.0102 -0.0146,0.009 -9.2e-4,4.6e-4 -0.0162,0.0102 -0.002,0.001 -0.0146,0.009 -0.005,0.003 -0.0114,0.007 -0.008,0.005 -0.008,0.005 -0.01,0.006 -0.007,0.004 -0.0857,0.0538 -0.0182,0.011 -0.005,0.003 -0.0458,0.0284 -0.003,0.002 -0.0522,0.0317 -10e-4,9.2e-4 -0.003,0.002 -0.0146,0.008 -9.2e-4,4.6e-4 -0.0146,0.009 -0.002,9.2e-4 -0.013,0.008 -0.013,0.008 -0.002,9.2e-4 -0.007,0.004 -0.0226,0.0135 -0.0114,0.007 -0.0173,0.0104 -0.0504,0.0296 -0.0504,0.0296 -0.0507,0.0297 -0.0507,0.0299 -0.10242,0.0598 -0.0515,0.0299 -0.0517,0.0302 -0.0215,0.0124 -0.1351,0.078 -0.0525,0.0302 -0.053,0.0302 -0.053,0.0306 -0.0697,0.0398 -0.091,0.0515 -0.054,0.0306 -0.20971,0.11786 -0.01,0.005 -0.0553,0.0307 -0.0553,0.0311 -0.013,0.007 -0.0736,0.0406 -0.16534,0.0909 -0.0777,0.0426 c -0.0793,0.0431 -0.15948,0.0865 -0.24045,0.1299 l -0.0206,0.0112 -0.0377,0.0201 -0.1177,0.0626 -0.0592,0.0315 -0.01,0.005 -0.10876,0.0574 -4.6e-4,3.3e-4 -0.0601,0.0314 -0.0172,0.009 -0.10373,0.0543 -0.0608,0.0315 -0.0558,0.0288 c -0.0759,0.0393 -0.15266,0.0787 -0.23004,0.11803 l -0.0632,0.0322 c -0.0909,0.046 -0.18274,0.0923 -0.27557,0.13851 l -9.2e-4,3.2e-4 c -0.0886,0.044 -0.17801,0.0883 -0.26841,0.1325 l -0.0897,0.0439 c -0.0982,0.0476 -0.1972,0.0958 -0.2975,0.14372 l -4.6e-4,0 c -5.60033,2.67537 -14.58218,5.52203 -31.6332,6.74605 -12.21496,0.87745 -19.62002,6.25375 -24.44991,12.74206 l 0,-22.13828 z m 17.60556,0 30.42383,0 0,-13.89173 c 0,-8.40033 -6.81182,-15.21216 -15.21183,-15.21216 -8.39984,0 -15.212,6.81183 -15.212,15.21216 l 0,13.89173 z m 39.4104,2.19101 c -0.091,0.046 -0.18257,0.0922 -0.27556,0.13851 m -11.14701,-37.60128 c -3.61661,-2.16109 -7.84466,-3.40445 -12.36273,-3.40445 -12.38452,0 -22.59283,9.3309 -23.98153,21.34329 3.63059,-11.35868 14.27313,-19.58669 26.83486,-19.58669 3.33681,0 6.53837,0.58202 9.5094,1.64785 z m 20.04173,40.58906 0,39.80658 -56.15367,0 c 6.19014,-3.44168 10.80349,-3.09117 18.44427,-2.84958 10.40519,0.32905 21.90254,-4.02987 27.55701,-9.80156 5.65512,-5.77233 -0.51178,-1.36577 -6.91327,0.25817 -6.40247,1.62297 -18.79105,1.79579 -27.07205,-0.38091 26.08165,0.35555 36.23225,-8.08136 41.99662,-15.63729 5.76403,-7.55576 -2.49307,-1.3118 -7.84222,1.29295 -5.34883,2.60719 -14.67778,4.46979 -24.936,3.1115 15.52771,-0.0322 27.34241,-7.79182 34.91931,-15.79986 z"
       style="font-size:40.35129929px;font-weight:normal;fill:#0093dd;fill-rule:evenodd;font-family:CastleT"
       id="path4161" />
    <text
       xml:space="preserve"
       style="font-size:40px;font-style:normal;font-weight:normal;line-height:125%;letter-spacing:0px;word-spacing:0px;fill:#000000;fill-opacity:1;stroke:none;font-family:Bitstream Vera Sans"
       x="166.67517"
       y="735.17432"
       id="text3325"
       sodipodi:linespacing="125%"><tspan
         sodipodi:role="line"
         id="tspan3327"
         x="166.67517"
         y="735.17432"
         style="font-style:oblique;-inkscape-font-specification:Bitstream Vera Sans Oblique;fill:#ffffff">PGP/X.509 Clean Room</tspan></text>
    <g
       transform="matrix(1.5122997,0,0,1.5122997,14.140313,583.97516)"
       id="Layer_1"
       i:layer="yes"
       i:dimmedPercent="50"
       i:rgbTrio="#4F008000FFFF">
      <g
         id="g3513">
        <path
           style="fill:#a80030"
           inkscape:connector-curvature="0"
           i:knockout="Off"
           d="m 51.986,57.297 c -1.797,0.025 0.34,0.926 2.686,1.287 0.648,-0.506 1.236,-1.018 1.76,-1.516 -1.461,0.358 -2.948,0.366 -4.446,0.229"
           id="path3515" />
        <path
           style="fill:#a80030"
           inkscape:connector-curvature="0"
           i:knockout="Off"
           d="m 61.631,54.893 c 1.07,-1.477 1.85,-3.094 2.125,-4.766 -0.24,1.192 -0.887,2.221 -1.496,3.307 -3.359,2.115 -0.316,-1.256 -0.002,-2.537 -3.612,4.546 -0.496,2.726 -0.627,3.996"
           id="path3517" />
        <path
           style="fill:#a80030"
           inkscape:connector-curvature="0"
           i:knockout="Off"
           d="m 65.191,45.629 c 0.217,-3.236 -0.637,-2.213 -0.924,-0.978 0.335,0.174 0.6,2.281 0.924,0.978"
           id="path3519" />
        <path
           style="fill:#a80030"
           inkscape:connector-curvature="0"
           i:knockout="Off"
           d="m 45.172,1.399 c 0.959,0.172 2.072,0.304 1.916,0.533 1.049,-0.23 1.287,-0.442 -1.916,-0.533"
           id="path3521" />
        <path
           style="fill:#a80030"
           inkscape:connector-curvature="0"
           i:knockout="Off"
           d="M 47.088,1.932 46.41,2.072 47.041,2.016 47.088,1.932"
           id="path3523" />
        <path
           style="fill:#a80030"
           inkscape:connector-curvature="0"
           i:knockout="Off"
           d="m 76.992,46.856 c 0.107,2.906 -0.85,4.316 -1.713,6.812 l -1.553,0.776 c -1.271,2.468 0.123,1.567 -0.787,3.53 -1.984,1.764 -6.021,5.52 -7.313,5.863 -0.943,-0.021 0.639,-1.113 0.846,-1.541 -2.656,1.824 -2.131,2.738 -6.193,3.846 L 60.16,65.878 C 50.142,70.591 36.226,61.251 36.409,48.507 c -0.107,0.809 -0.304,0.607 -0.526,0.934 -0.517,-6.557 3.028,-13.143 9.007,-15.832 5.848,-2.895 12.704,-1.707 16.893,2.197 -2.301,-3.014 -6.881,-6.209 -12.309,-5.91 -5.317,0.084 -10.291,3.463 -11.951,7.131 -2.724,1.715 -3.04,6.611 -4.227,7.507 -1.597,11.737 3.004,16.808 10.787,22.773 1.225,0.826 0.345,0.951 0.511,1.58 -2.586,-1.211 -4.954,-3.039 -6.901,-5.277 1.033,1.512 2.148,2.982 3.589,4.137 -2.438,-0.826 -5.695,-5.908 -6.646,-6.115 4.203,7.525 17.052,13.197 23.78,10.383 -3.113,0.115 -7.068,0.064 -10.566,-1.229 -1.469,-0.756 -3.467,-2.322 -3.11,-2.615 9.182,3.43 18.667,2.598 26.612,-3.771 2.021,-1.574 4.229,-4.252 4.867,-4.289 -0.961,1.445 0.164,0.695 -0.574,1.971 2.014,-3.248 -0.875,-1.322 2.082,-5.609 l 1.092,1.504 c -0.406,-2.696 3.348,-5.97 2.967,-10.234 0.861,-1.304 0.961,1.403 0.047,4.403 1.268,-3.328 0.334,-3.863 0.66,-6.609 0.352,0.923 0.814,1.904 1.051,2.878 -0.826,-3.216 0.848,-5.416 1.262,-7.285 -0.408,-0.181 -1.275,1.422 -1.473,-2.377 0.029,-1.65 0.459,-0.865 0.625,-1.271 -0.324,-0.186 -1.174,-1.451 -1.691,-3.877 0.375,-0.57 1.002,1.478 1.512,1.562 -0.328,-1.929 -0.893,-3.4 -0.916,-4.88 -1.49,-3.114 -0.527,0.415 -1.736,-1.337 -1.586,-4.947 1.316,-1.148 1.512,-3.396 2.404,3.483 3.775,8.881 4.404,11.117 -0.48,-2.726 -1.256,-5.367 -2.203,-7.922 0.73,0.307 -1.176,-5.609 0.949,-1.691 C 83.519,18.706 76.074,10.902 69.225,7.24 70.063,8.007 71.121,8.97 70.741,9.121 67.335,7.093 67.934,6.935 67.446,6.078 64.671,4.949 64.489,6.169 62.651,6.08 57.421,3.306 56.413,3.601 51.6,1.863 l 0.219,1.023 c -3.465,-1.154 -4.037,0.438 -7.782,0.004 -0.228,-0.178 1.2,-0.644 2.375,-0.815 -3.35,0.442 -3.193,-0.66 -6.471,0.122 0.808,-0.567 1.662,-0.942 2.524,-1.424 -2.732,0.166 -6.522,1.59 -5.352,0.295 -4.456,1.988 -12.37,4.779 -16.811,8.943 l -0.14,-0.933 c -2.035,2.443 -8.874,7.296 -9.419,10.46 l -0.544,0.127 c -1.059,1.793 -1.744,3.825 -2.584,5.67 -1.385,2.36 -2.03,0.908 -1.833,1.278 -2.724,5.523 -4.077,10.164 -5.246,13.97 0.833,1.245 0.02,7.495 0.335,12.497 -1.368,24.704 17.338,48.69 37.785,54.228 2.997,1.072 7.454,1.031 11.245,1.141 -4.473,-1.279 -5.051,-0.678 -9.408,-2.197 -3.143,-1.48 -3.832,-3.17 -6.058,-5.102 l 0.881,1.557 c -4.366,-1.545 -2.539,-1.912 -6.091,-3.037 l 0.941,-1.229 C 28.751,98.334 26.418,96.056 25.78,94.795 l -1.548,0.061 c -1.86,-2.295 -2.851,-3.949 -2.779,-5.23 l -0.5,0.891 c -0.567,-0.973 -6.843,-8.607 -3.587,-6.83 -0.605,-0.553 -1.409,-0.9 -2.281,-2.484 l 0.663,-0.758 c -1.567,-2.016 -2.884,-4.6 -2.784,-5.461 0.836,1.129 1.416,1.34 1.99,1.533 -3.957,-9.818 -4.179,-0.541 -7.176,-9.994 L 8.412,66.472 C 7.926,65.74 7.631,64.945 7.24,64.165 l 0.276,-2.75 C 4.667,58.121 6.719,47.409 7.13,41.534 7.415,39.145 9.508,36.602 11.1,32.614 l -0.97,-0.167 c 1.854,-3.234 10.586,-12.988 14.63,-12.486 1.959,-2.461 -0.389,-0.009 -0.772,-0.629 4.303,-4.453 5.656,-3.146 8.56,-3.947 3.132,-1.859 -2.688,0.725 -1.203,-0.709 5.414,-1.383 3.837,-3.144 10.9,-3.846 0.745,0.424 -1.729,0.655 -2.35,1.205 4.511,-2.207 14.275,-1.705 20.617,1.225 7.359,3.439 15.627,13.605 15.953,23.17 l 0.371,0.1 c -0.188,3.802 0.582,8.199 -0.752,12.238 l 0.908,-1.912"
           id="path3525" />
        <path
           style="fill:#a80030"
           inkscape:connector-curvature="0"
           i:knockout="Off"
           d="m 32.372,59.764 -0.252,1.26 c 1.181,1.604 2.118,3.342 3.626,4.596 -1.085,-2.118 -1.891,-2.993 -3.374,-5.856"
           id="path3527" />
        <path
           style="fill:#a80030"
           inkscape:connector-curvature="0"
           i:knockout="Off"
           d="m 35.164,59.654 c -0.625,-0.691 -0.995,-1.523 -1.409,-2.352 0.396,1.457 1.207,2.709 1.962,3.982 l -0.553,-1.63"
           id="path3529" />
        <path
           style="fill:#a80030"
           inkscape:connector-curvature="0"
           i:knockout="Off"
           d="m 84.568,48.916 -0.264,0.662 c -0.484,3.438 -1.529,6.84 -3.131,9.994 1.77,-3.328 2.915,-6.968 3.395,-10.656"
           id="path3531" />
        <path
           style="fill:#a80030"
           inkscape:connector-curvature="0"
           i:knockout="Off"
           d="M 45.527,0.537 C 46.742,0.092 48.514,0.293 49.803,0 48.123,0.141 46.451,0.225 44.8,0.438 l 0.727,0.099"
           id="path3533" />
        <path
           style="fill:#a80030"
           inkscape:connector-curvature="0"
           i:knockout="Off"
           d="m 2.872,23.219 c 0.28,2.592 -1.95,3.598 0.494,1.889 1.31,-2.951 -0.512,-0.815 -0.494,-1.889"
           id="path3535" />
        <path
           style="fill:#a80030"
           inkscape:connector-curvature="0"
           i:knockout="Off"
           d="M 0,35.215 C 0.563,33.487 0.665,32.449 0.88,31.449 -0.676,33.438 0.164,33.862 0,35.215"
           id="path3537" />
      </g>
    </g>
  </g>
</svg>
